<svg xmlns="http://www.w3.org/2000/svg" viewBox="0 0 95 91.09"><g id="Layer_2" data-name="Layer 2"><g id="Layer_1-2" data-name="Layer 1"><path d="M46.48,87.42a66.89,66.89,0,0,0-10.15,1.45c-3.09.62-6.17,1.26-9.28,1.76a19.12,19.12,0,0,1-7.5,0,10.9,10.9,0,0,1-8.37-11.44,18.84,18.84,0,0,1,3-8.35,29.43,29.43,0,0,1,6-6.86,54.7,54.7,0,0,0,7-6.74c1.9-2.37,3.65-4.86,5.44-7.31a60.51,60.51,0,0,1,5-6.33,15.32,15.32,0,0,1,8.57-4.89C50.8,37.94,56,39.13,59,44c1.62,2.57,3.13,5.2,4.72,7.79A67.7,67.7,0,0,0,75.37,66a22.92,22.92,0,0,1,5.54,7.41C82.77,77.62,83,81.82,80.85,86a8.94,8.94,0,0,1-8,5.1,37.82,37.82,0,0,1-8.42-.82Q57.54,89.1,50.65,88C49.27,87.73,47.87,87.6,46.48,87.42Z"/><ellipse cx="30.87" cy="18.38" rx="12.27" ry="17.78" transform="translate(-3.98 9.65) rotate(-16.71)"/><ellipse cx="64.16" cy="17.39" rx="17.78" ry="12.27" transform="translate(28.93 73.76) rotate(-73.16)"/><ellipse cx="84.31" cy="43.92" rx="14.81" ry="10.22" transform="translate(17.85 111.9) rotate(-73.16)"/><ellipse cx="10.95" cy="43.84" rx="10.48" ry="15.19" transform="translate(-12.14 5) rotate(-16.71)"/></g></g></svg>